<svg width="90" height="91" viewBox="0 0 90 91" fill="none" xmlns="http://www.w3.org/2000/svg">
<path d="M67.6406 69.3442L56.9531 64.1411L53.4375 62.4536V61.3286C57.375 58.6567 61.7344 53.4536 65.3906 43.6802C67.2891 43.6099 68.9062 42.7661 69.8906 41.3599C71.0859 39.6724 71.2969 37.4224 70.4531 35.5942C70.1719 34.9614 69.75 34.4692 69.3281 34.0474H71.0156V27.2974L67.9922 26.4536V26.0317C67.9922 17.2427 63 9.29736 55.125 5.43018C54.7031 3.8833 53.3672 2.7583 51.6797 2.7583H46.4062V1.49268H43.5938V2.68799H38.3203C36.6328 2.68799 35.2969 3.81299 34.875 5.35986C27 9.22705 22.0078 17.2427 22.0078 25.9614V26.3833L18.9844 27.2974V34.0474H20.6719C20.1797 34.4692 19.8281 35.0317 19.5469 35.5942C18.7031 37.4224 18.9141 39.6724 20.1094 41.3599C21.1641 42.8364 22.7812 43.6099 24.6094 43.6802C28.2656 53.4536 32.6953 58.5864 36.5625 61.3286V62.4536L33.9609 63.7192L22.3594 69.3442C19.4766 70.7505 17.5781 73.7036 17.5781 76.938V89.2427H72.4219V76.938C72.4219 73.7036 70.5234 70.7505 67.6406 69.3442ZM50.625 63.5083C50.625 63.7192 50.5547 64.0005 50.5547 64.2817C50.5547 64.4224 50.4844 64.6333 50.4844 64.7739C50.4141 64.9146 50.4141 65.0552 50.3438 65.1958C50.3438 65.1958 50.3438 65.2661 50.2734 65.2661C50.2031 65.4067 50.2031 65.477 50.1328 65.6177C50.1328 65.688 50.0625 65.7583 49.9922 65.8286C49.9922 65.8989 49.9219 65.9692 49.8516 66.0396C49.7812 66.1802 49.7109 66.3208 49.6406 66.4614C49.0078 67.3755 48.1641 68.0786 47.1797 68.5005C47.1797 68.5005 47.1797 68.5005 47.1094 68.5005C46.9688 68.5708 46.8281 68.6411 46.6875 68.6411H46.6172C46.4766 68.7114 46.3359 68.7114 46.1953 68.7114C46.125 68.7114 46.125 68.7114 46.0547 68.7114C45.9141 68.7114 45.7734 68.7817 45.6328 68.7817C45.5625 68.7817 45.5625 68.7817 45.4922 68.7817C45.2812 68.7817 45.1406 68.7817 44.9297 68.7817C41.8359 68.7817 39.3047 66.2505 39.3047 63.1567V62.7349C41.625 63.7896 43.5938 64.0005 44.9297 64.0005C46.2656 64.0005 48.2344 63.7896 50.5547 62.7349V63.3677C50.625 63.438 50.625 63.438 50.625 63.5083ZM67.6406 39.7427C67.3594 40.0942 67.0078 40.5161 66.375 40.7271C66.7266 39.1802 67.0078 37.4927 67.1484 35.9458C67.5 36.1567 67.7812 36.438 67.9219 36.8599C68.3438 37.7036 68.2734 38.8989 67.6406 39.7427ZM21.7969 29.4067L24.8203 28.563V26.0317C24.8203 18.8599 28.6875 12.2505 34.7344 8.66455V17.1021H37.5469V6.27393C37.5469 5.85205 37.8984 5.50049 38.3203 5.50049H43.5938V21.6724H46.4062V5.50049H51.6797C52.1016 5.50049 52.4531 5.85205 52.4531 6.27393V17.0317H55.2656V8.59424C61.3828 12.1802 65.1797 18.7896 65.1797 25.9614V28.4927L68.2031 29.3364V31.1646H21.7969V29.4067ZM22.3594 39.7427C21.7266 38.8989 21.6562 37.7036 22.0781 36.8599C22.2891 36.5083 22.5 36.1567 22.8516 35.9458C22.9922 37.7036 23.3438 39.2505 23.6953 40.7271C23.0625 40.5161 22.6406 40.0942 22.3594 39.7427ZM26.9297 41.8521C26.2969 39.5317 25.6641 37.0708 25.5234 34.0474H64.4766C64.4062 36.2974 63.9141 39.6724 63.1406 41.7817C56.8125 59.4302 48.375 61.3286 45 61.3286C41.6953 61.3989 33.2578 59.5005 26.9297 41.8521ZM69.6094 86.4302H63.2812V84.4614H60.4688V86.4302H29.5312V84.4614H26.7188V86.4302H20.3906V76.938C20.3906 74.7583 21.6562 72.7896 23.5547 71.8755L36.8438 65.4771C36.8438 65.5474 36.9141 65.6177 36.9141 65.688C36.9141 65.7583 36.9844 65.8989 36.9844 65.9692C37.0547 66.1099 37.125 66.3208 37.1953 66.4614C37.1953 66.5317 37.2656 66.6021 37.2656 66.6724C37.3359 66.8833 37.4766 67.0942 37.5469 67.2349C37.5469 67.2349 37.5469 67.3052 37.6172 67.3052C37.7578 67.5161 37.8984 67.7271 38.0391 67.938C38.1094 68.0083 38.1094 68.0786 38.1797 68.1489C38.25 68.2896 38.3906 68.4302 38.5312 68.5708C38.6016 68.6411 38.6719 68.7114 38.7422 68.7817C38.8125 68.9224 38.9531 68.9927 39.0937 69.1333C39.1641 69.2036 39.2344 69.2739 39.3047 69.3442C39.4453 69.4849 39.5156 69.5552 39.6563 69.6958C39.7266 69.7661 39.7969 69.8364 39.8672 69.9067C40.0078 70.0474 40.1484 70.1177 40.2891 70.2583C40.3594 70.3286 40.4297 70.3286 40.4297 70.3989C40.6406 70.5396 40.8516 70.6802 41.0625 70.8208C41.1328 70.8208 41.1328 70.8911 41.2031 70.8911C41.4141 70.9614 41.5547 71.1021 41.7656 71.1724C41.8359 71.2427 41.9062 71.2427 42.0469 71.2427C42.1875 71.313 42.3281 71.3833 42.5391 71.3833C42.6094 71.3833 42.75 71.4536 42.8203 71.4536C42.9609 71.5239 43.1719 71.5239 43.3125 71.5942C43.3828 71.5942 43.5234 71.6646 43.5938 71.6646C43.7344 71.6646 43.9453 71.7349 44.1562 71.7349C44.2266 71.7349 44.2969 71.7349 44.4375 71.7349C44.7188 71.7349 45 71.8052 45.2109 71.8052C45.4922 71.8052 45.7031 71.8052 45.9844 71.8052C46.125 71.8052 46.2656 71.8052 46.3359 71.7349C46.4766 71.7349 46.5469 71.7349 46.6875 71.6646C46.8281 71.6646 47.0391 71.5942 47.1797 71.5239C47.25 71.5239 47.3203 71.5239 47.3906 71.4536C47.6016 71.3833 47.7422 71.313 47.9531 71.313C48.0234 71.313 48.0234 71.313 48.0938 71.313C48.3047 71.2427 48.5156 71.1724 48.6562 71.1021H48.7266C48.9375 71.0317 49.1484 70.8911 49.2891 70.8208C49.5 70.6802 49.6406 70.6099 49.8516 70.4692C50.0625 70.3286 50.2031 70.2583 50.3438 70.1177C50.3438 70.1177 50.4141 70.1177 50.4141 70.0474C50.5547 69.9067 50.6953 69.7661 50.8359 69.6958L50.9062 69.6255C51.0469 69.4849 51.1172 69.4146 51.2578 69.2739C51.3281 69.2036 51.3984 69.1333 51.3984 69.063C51.4688 68.9927 51.5391 68.8521 51.6797 68.7817C51.75 68.6411 51.8906 68.5708 51.9609 68.4302C52.0312 68.3599 52.0312 68.2896 52.1016 68.2896C52.6641 67.5161 53.0859 66.6021 53.2969 65.6177L66.5156 72.0161C68.4844 72.9302 69.6797 74.9692 69.6797 77.0786V86.4302H69.6094Z" fill="#E05100"/>
<path d="M60.1172 26.1021H29.8828V28.9146H60.1172V26.1021Z" fill="#E05100"/>
</svg>
