<svg width="90" height="91" viewBox="0 0 90 91" fill="none" xmlns="http://www.w3.org/2000/svg">
<g clip-path="url(#clip0_4_53)">
<path d="M25.0166 20.77C25.7929 20.77 26.4228 21.3999 26.4228 22.1763C26.4228 22.9526 25.7929 23.5825 25.0166 23.5825H22.7929V78.895H67.207V23.5825H64.9805C64.2041 23.5825 63.5742 22.9526 63.5742 22.1763C63.5742 21.3999 64.2041 20.77 64.9805 20.77H68.5781H68.6133C69.3897 20.77 70.0195 21.3999 70.0195 22.1763V80.2659V80.3041C70.0195 81.0803 69.3897 81.7104 68.6133 81.7104H21.4218H21.3866C20.6102 81.7104 19.9803 81.0803 19.9803 80.3041V22.2115V22.1763C19.9803 21.3999 20.6102 20.77 21.3866 20.77H25.0166Z" fill="#E05100"/>
<path d="M37.7343 6.24468C38.5077 6.24468 39.1347 6.87161 39.1347 7.64502C39.1347 8.41843 38.5077 9.04536 37.7343 9.04536H33.6914V20.77H56.3085V9.04536L52.2656 9.04252C51.4919 9.04252 50.8652 8.41547 50.8652 7.64207C50.8652 6.86866 51.4922 6.24172 52.2656 6.24172L57.571 6.24468L57.7148 6.23877C58.4911 6.23877 59.121 6.86866 59.121 7.64502V22.141V22.1763C59.121 22.9526 58.4911 23.5825 57.7148 23.5825H32.3203H32.2851C31.5087 23.5825 30.8789 22.9526 30.8789 22.1763V7.64502H30.8848C30.8848 6.87161 31.5117 6.24468 32.2851 6.24468H37.7343Z" fill="#E05100"/>
<path d="M43.1806 36.2974C42.4042 36.2974 41.7743 35.6675 41.7743 34.8911C41.7743 34.1147 42.4042 33.4849 43.1806 33.4849H61.3476C62.124 33.4849 62.7538 34.1147 62.7538 34.8911C62.7538 35.6675 62.124 36.2974 61.3476 36.2974H43.1806ZM43.1806 68.9927C42.4042 68.9927 41.7743 68.3628 41.7743 67.5865C41.7743 66.8102 42.4042 66.1802 43.1806 66.1802H61.3476C62.124 66.1802 62.7538 66.8102 62.7538 67.5865C62.7538 68.3628 62.124 68.9927 61.3476 68.9927H43.1806ZM43.1806 58.0942C42.4042 58.0942 41.7743 57.4643 41.7743 56.6879C41.7743 55.9116 42.4042 55.2817 43.1806 55.2817H61.3476C62.124 55.2817 62.7538 55.9116 62.7538 56.6879C62.7538 57.4643 62.124 58.0942 61.3476 58.0942H43.1806ZM43.1806 47.1958C42.4042 47.1958 41.7743 46.5659 41.7743 45.7895C41.7743 45.0132 42.4042 44.3833 43.1806 44.3833H61.3476C62.124 44.3833 62.7538 45.0161 62.7538 45.7895C62.7538 46.5659 62.124 47.1958 61.3476 47.1958H43.1806Z" fill="#E05100"/>
<path d="M29.121 34.8239C28.6582 34.2058 28.7841 33.3269 29.4023 32.8611C30.0204 32.3981 30.8993 32.5242 31.3623 33.1424L32.2851 34.3728L35.25 30.4177C35.7128 29.7996 36.5946 29.6736 37.2128 30.1364C37.8309 30.5993 37.9569 31.4811 37.4941 32.0964L33.4218 37.5251L33.4071 37.5457C33.3281 37.6511 33.2373 37.7449 33.1259 37.8269C32.5077 38.2897 31.6288 38.1638 31.1659 37.5457L29.121 34.8239Z" fill="#E05100"/>
<path d="M29.121 45.7224C28.6582 45.1042 28.7841 44.2253 29.4023 43.7595C30.0204 43.2966 30.8993 43.4226 31.3623 44.0408L32.2851 45.2712L35.25 41.3161C35.7128 40.6981 36.5946 40.572 37.2128 41.0349C37.8309 41.4977 37.9569 42.3795 37.4941 42.9977L33.4218 48.4264L33.4071 48.4469C33.3281 48.5524 33.2373 48.6461 33.1259 48.7283C32.5077 49.191 31.6288 49.0652 31.1659 48.4469L29.121 45.7224Z" fill="#E05100"/>
<path d="M29.121 56.6203C28.6582 56.0022 28.7841 55.1231 29.4023 54.6575C30.0204 54.1947 30.8993 54.3206 31.3623 54.9388L32.2851 56.1692L35.25 52.2141C35.7128 51.596 36.5946 51.47 37.2128 51.9327C37.8309 52.3956 37.9569 53.2775 37.4941 53.8956L33.4218 59.3242L33.4071 59.3448C33.3281 59.4503 33.2373 59.544 33.1259 59.6261C32.5077 60.0889 31.6288 59.963 31.1659 59.3448L29.121 56.6203Z" fill="#E05100"/>
<path d="M29.121 67.5192C28.6582 66.9012 28.7841 66.0221 29.4023 65.5565C30.0204 65.0937 30.8993 65.2196 31.3623 65.8377L32.2851 67.0682L35.25 63.1131C35.7128 62.495 36.5946 62.3689 37.2128 62.8317C37.8309 63.2946 37.9569 64.1764 37.4941 64.7946L33.4218 70.2231L33.4071 70.2438C33.3281 70.3492 33.2373 70.443 33.1259 70.525C32.5077 70.9879 31.6288 70.862 31.1659 70.2438L29.121 67.5192Z" fill="#E05100"/>
<path d="M25.0195 11.688C25.7959 11.688 26.4258 12.3179 26.4258 13.0942C26.4258 13.8706 25.7959 14.5005 25.0195 14.5005H15.9375C15.331 14.5005 14.7715 14.7524 14.3671 15.1567C13.9628 15.5611 13.7109 16.1206 13.7109 16.7271V85.7505C13.7109 86.3629 13.9599 86.9223 14.3614 87.3206L14.3671 87.3266C14.7656 87.7279 15.3252 87.9771 15.9375 87.9771H74.0625C74.6777 87.9771 75.2344 87.7281 75.6327 87.3266L75.6386 87.3206C76.04 86.9222 76.2891 86.3626 76.2891 85.7505V16.7271C76.2891 16.1148 76.0402 15.5551 75.6386 15.1567L75.6359 15.1538L75.6329 15.1567C75.2286 14.7524 74.672 14.5005 74.0627 14.5005H64.9807C64.2043 14.5005 63.5744 13.8706 63.5744 13.0942C63.5744 12.3179 64.2043 11.688 64.9807 11.688H74.0627C75.4484 11.688 76.7113 12.2563 77.6223 13.1675L77.6194 13.1705C78.5334 14.0845 79.1018 15.3472 79.1018 16.7271V85.7505C79.1018 87.1304 78.5363 88.3901 77.6223 89.304L77.6163 89.31C76.7023 90.2241 75.4425 90.7896 74.0627 90.7896H15.9377C14.5578 90.7896 13.2981 90.2241 12.3841 89.31L12.3782 89.304C11.464 88.39 10.8985 87.1303 10.8985 85.7505V16.7271C10.8985 15.3414 11.4668 14.0787 12.3781 13.1675C13.2893 12.2564 14.5519 11.688 15.9376 11.688H25.0195Z" fill="#E05100"/>
<path d="M45 0.789551C46.134 0.789551 47.1679 1.25535 47.915 1.99944L47.9209 2.00535C48.665 2.75239 49.1308 3.78364 49.1308 4.92035C49.1308 6.05421 48.6648 7.0883 47.9209 7.83535L47.9181 7.8383L47.9209 7.84126C47.1767 8.5883 46.1427 9.05114 45 9.05114C43.8574 9.05114 42.8233 8.58535 42.0791 7.84126C41.332 7.09705 40.8692 6.06001 40.8692 4.92035C40.8692 3.78364 41.335 2.75239 42.082 2.00239L42.0791 1.99944C42.8261 1.25535 43.8603 0.789551 45 0.789551ZM45.9375 3.98876L45.9316 3.98285C45.6943 3.74841 45.3661 3.60194 45 3.60194C44.6367 3.60194 44.3057 3.75137 44.0684 3.98864L44.0654 3.98569L44.0625 3.98864C43.831 4.22012 43.6816 4.5541 43.6816 4.91728C43.6816 5.28046 43.831 5.6116 44.0683 5.84898C44.3056 6.08626 44.6366 6.23569 44.9999 6.23569C45.3632 6.23569 45.6942 6.08626 45.9315 5.84898L45.9344 5.85182C46.1687 5.61455 46.3153 5.28353 46.3153 4.91728C46.3183 4.55716 46.1718 4.22603 45.9375 3.98876Z" fill="#E05100"/>
</g>
<defs>
<clipPath id="clip0_4_53">
<rect width="90" height="90" fill="white" transform="translate(0 0.789551)"/>
</clipPath>
</defs>
</svg>
