<svg width="102" height="103" viewBox="0 0 102 103" fill="none" xmlns="http://www.w3.org/2000/svg">
<path d="M52.632 41.5895C52.19 41.6031 51.765 41.7867 51.4522 42.1063L42.483 51.0483L36.958 45.5403C35.411 43.9287 32.912 46.4175 34.527 47.9611L41.2692 54.6863C41.939 55.3561 43.027 55.3561 43.7002 54.6863L53.8832 44.5305C55.0052 43.4425 54.179 41.5895 52.6354 41.5895H52.632ZM1.7 55.1895H11.9C12.8418 55.1895 13.6 55.9477 13.6 56.8895C13.6 57.8313 12.8418 58.5895 11.9 58.5895H1.7C0.7582 58.5895 0 57.8313 0 56.8895C0 55.9477 0.7582 55.1895 1.7 55.1895ZM1.7 41.5895H11.9C12.8418 41.5895 13.6 42.3477 13.6 43.2895C13.6 44.2313 12.8418 44.9895 11.9 44.9895H1.7C0.7582 44.9895 0 44.2313 0 43.2895C0 42.3477 0.7582 41.5895 1.7 41.5895ZM1.7 27.9895H11.9C12.8418 27.9895 13.6 28.7477 13.6 29.6895C13.6 30.6313 12.8418 31.3895 11.9 31.3895H1.7C0.7582 31.3895 0 30.6313 0 29.6895C0 28.7477 0.7582 27.9895 1.7 27.9895ZM83.3 65.3895C78.625 65.3895 74.8 69.2145 74.8 73.8895C74.8 78.5645 78.625 82.3895 83.3 82.3895C87.975 82.3895 91.8 78.5645 91.8 73.8895C91.8 69.2145 87.975 65.3895 83.3 65.3895ZM83.3 68.7895C86.1356 68.7895 88.4 71.0539 88.4 73.8895C88.4 76.7251 86.1356 78.9895 83.3 78.9895C80.4644 78.9895 78.2 76.7251 78.2 73.8895C78.2 71.0539 80.4644 68.7895 83.3 68.7895ZM39.1 65.3895C34.425 65.3895 30.6 69.2145 30.6 73.8895C30.6 78.5645 34.425 82.3895 39.1 82.3895C43.775 82.3895 47.6 78.5645 47.6 73.8895C47.6 69.2145 43.775 65.3895 39.1 65.3895ZM39.1 68.7895C41.9356 68.7895 44.2 71.0539 44.2 73.8895C44.2 76.7251 41.9356 78.9895 39.1 78.9895C36.2644 78.9895 34 76.7251 34 73.8895C34 71.0539 36.2644 68.7895 39.1 68.7895ZM22.1 21.1895C19.3052 21.1895 17 23.4947 17 26.2895V63.6895C17 66.4843 19.3052 68.7895 22.1 68.7895H28.9C31.1984 68.8235 31.1984 65.3555 28.9 65.3895H22.1C21.1276 65.3895 20.4 64.6619 20.4 63.6895V26.2895C20.4 25.3171 21.1276 24.5895 22.1 24.5895H66.3C67.2724 24.5895 68 25.3171 68 26.2895V65.3895H49.3C47.056 65.3895 47.0968 68.8235 49.3 68.7895H73.1C75.344 68.7895 75.3236 65.3895 73.1 65.3895H71.4V34.7895H85.7718L98.6 54.8359V63.6895C98.6 64.6619 97.8724 65.3895 96.9 65.3895H93.5C91.2764 65.3895 91.2764 68.7895 93.5 68.7895H96.9C99.6948 68.7895 102 66.4843 102 63.6895V54.3395C102 54.0165 101.908 53.6935 101.735 53.4215L88.1348 32.1715C87.822 31.6853 87.2848 31.3895 86.7 31.3895H71.4V26.2895C71.4 23.4947 69.0948 21.1895 66.3 21.1895H22.1Z" fill="#E05100"/>
</svg>
