<svg width="103" height="104" viewBox="0 0 103 104" fill="none" xmlns="http://www.w3.org/2000/svg">
<path d="M18.8833 17.9561C16.6345 17.9561 16.6173 21.4237 18.8833 21.3894H94.4167C95.3986 21.3894 96.1333 22.1241 96.1333 23.1061V67.7394C96.1333 70.0054 99.5667 70.0054 99.5667 67.7394V23.1061C99.5667 20.2839 97.2389 17.9561 94.4167 17.9561H18.8833ZM12.0167 24.8227C9.77127 24.8227 9.77127 28.2561 12.0167 28.2561H87.55C88.5319 28.2561 89.2667 28.9908 89.2667 29.9727V74.6061C89.2667 76.8892 92.7343 76.8721 92.7 74.6061V29.9727C92.7 27.1505 90.3722 24.8227 87.55 24.8227H12.0167ZM5.15 31.6894C2.3278 31.6894 0 34.0172 0 36.8394V78.0394C0 80.8616 2.3278 83.1894 5.15 83.1894H80.6833C83.5055 83.1894 85.8333 80.8616 85.8333 78.0394V36.8394C85.8333 34.0172 83.5055 31.6894 80.6833 31.6894H5.15ZM5.15 35.1227H80.6833C81.6653 35.1227 82.4 35.8575 82.4 36.8394V78.0394C82.4 79.0213 81.6653 79.7561 80.6833 79.7561H5.15C4.16807 79.7561 3.43333 79.0213 3.43333 78.0394V36.8394C3.43333 35.8575 4.16807 35.1227 5.15 35.1227ZM8.58333 38.5561C7.63573 38.5561 6.86667 39.3251 6.86667 40.2727V47.1394C6.86667 49.4466 10.3 49.3917 10.3 47.1394V41.9894H15.45C17.7572 41.9894 17.7023 38.5561 15.45 38.5561H8.58333ZM42.9167 38.5561C32.5068 38.5561 24.0333 47.0295 24.0333 57.4394C24.0333 67.8493 32.5068 76.3227 42.9167 76.3227C53.3265 76.3227 61.8 67.8493 61.8 57.4394C61.8 47.0295 53.3265 38.5561 42.9167 38.5561ZM70.3833 38.5561C68.1311 38.5561 68.0761 41.9894 70.3833 41.9894H75.5333V47.1394C75.5333 49.3917 78.9667 49.4466 78.9667 47.1394V40.2727C78.9667 39.3251 78.1976 38.5561 77.25 38.5561H70.3833ZM42.9167 41.9894C51.4657 41.9894 58.3667 48.8904 58.3667 57.4394C58.3667 65.9884 51.4657 72.8894 42.9167 72.8894C34.3677 72.8894 27.4667 65.9884 27.4667 57.4394C27.4667 48.8904 34.3677 41.9894 42.9167 41.9894ZM42.9167 45.4227C41.9656 45.4227 41.2 46.1884 41.2 47.1394V49.1788C39.2155 49.8998 37.7667 51.7881 37.7667 54.0061C37.7667 56.8214 40.1013 59.1561 42.9167 59.1561C43.878 59.1561 44.6333 59.8839 44.6333 60.8727C44.6333 61.8615 43.878 62.5894 42.9167 62.5894H39.4833C38.3229 62.5722 37.7667 63.4409 37.7667 64.3061C37.7667 65.1713 38.3229 66.0399 39.4833 66.0227H41.2V67.7394C41.2 68.6904 41.9656 69.4561 42.9167 69.4561C43.8677 69.4561 44.6333 68.6904 44.6333 67.7394V65.7C46.6178 64.979 48.0667 63.0907 48.0667 60.8727C48.0667 58.0574 45.732 55.7227 42.9167 55.7227C41.9553 55.7227 41.2 54.9949 41.2 54.0061C41.2 53.0173 41.9553 52.2894 42.9167 52.2894H46.35C47.5105 52.3066 48.0667 51.4379 48.0667 50.5727C48.0667 49.7075 47.5105 48.8389 46.35 48.8561H44.6333V47.1394C44.6333 46.1884 43.8677 45.4227 42.9167 45.4227ZM8.58333 66.0296C7.725 66.0227 6.86667 66.5858 6.86667 67.7394V74.6061C6.86667 75.5537 7.63573 76.3227 8.58333 76.3227H15.45C17.7023 76.3227 17.7572 72.8894 15.45 72.8894H10.3V67.7394C10.3 66.6133 9.44167 66.0365 8.58333 66.0296ZM77.25 66.0296C76.3917 66.0365 75.5333 66.6133 75.5333 67.7394V72.8894H70.3833C68.0761 72.8894 68.1311 76.3227 70.3833 76.3227H77.25C78.1976 76.3227 78.9667 75.5537 78.9667 74.6061V67.7394C78.9667 66.5858 78.1083 66.0227 77.25 66.0296Z" fill="#E05100"/>
</svg>
