<svg width="97" height="98" viewBox="0 0 97 98" fill="none" xmlns="http://www.w3.org/2000/svg">
<path d="M33.0966 49.0422L31.0837 63.5562C31.0096 64.0912 31.0823 64.6364 31.2939 65.1334C31.5055 65.6304 31.8482 66.0606 32.2853 66.3781C32.7223 66.6956 33.2374 66.8884 33.7755 66.9359C34.3136 66.9834 34.8545 66.8839 35.3405 66.648L48.4793 60.2495L61.6611 66.6495C62.1473 66.885 62.6883 66.984 63.2263 66.936C63.7643 66.888 64.2793 66.6948 64.7161 66.3771C65.153 66.0594 65.4953 65.629 65.7067 65.1319C65.9181 64.6348 65.9906 64.0897 65.9164 63.5546L63.8917 49.0822L74.0495 38.5247C74.4241 38.1354 74.6859 37.6517 74.807 37.1252C74.928 36.5987 74.9039 36.0493 74.737 35.5355C74.5702 35.0216 74.2669 34.5628 73.8596 34.2079C73.4523 33.853 72.9563 33.6154 72.4245 33.5204L58.0333 30.9746L51.1303 18.0504C50.8759 17.5738 50.4969 17.1752 50.0336 16.8973C49.5703 16.6194 49.0403 16.4727 48.5 16.4727C47.9598 16.4727 47.4297 16.6194 46.9665 16.8973C46.5032 17.1752 46.1241 17.5738 45.8698 18.0504L39.0007 30.9495L24.5756 33.5204C24.0438 33.6154 23.5478 33.853 23.1405 34.2079C22.7332 34.5628 22.4299 35.0216 22.2631 35.5355C22.0962 36.0493 22.0721 36.5987 22.1931 37.1252C22.3142 37.6517 22.576 38.1354 22.9505 38.5247L33.0966 49.0422ZM39.5365 33.9334C39.9804 33.8545 40.4004 33.6755 40.7649 33.4101C41.1293 33.1446 41.4285 32.7997 41.6397 32.4014L48.4556 19.4757L49.7936 18.7634L48.4572 19.4768L55.3604 32.401C55.5719 32.7997 55.8717 33.1449 56.2367 33.4104C56.6018 33.6759 57.0226 33.8546 57.4671 33.933L71.8655 36.4224L61.709 46.9801C61.3945 47.3045 61.1583 47.6965 61.0185 48.1262C60.8787 48.5558 60.839 49.0118 60.9024 49.4592L62.9835 63.9213L49.8032 57.5228C49.3977 57.3241 48.9522 57.2208 48.5007 57.2208C48.0491 57.2208 47.6036 57.3241 47.1981 57.5228L34.086 63.9716L36.1004 49.4548C36.1628 49.0081 36.1225 48.5531 35.9828 48.1243C35.843 47.6955 35.6073 47.3042 35.2936 46.9801L25.1086 36.5039L39.5365 33.9334Z" fill="#E05100"/>
<path d="M85.3297 50.5002C86.0304 47.623 86.3865 44.6727 86.3906 41.7114C86.3906 31.6622 82.3986 22.0246 75.2927 14.9187C68.1869 7.81284 58.5492 3.8208 48.5 3.8208C38.4508 3.8208 28.8132 7.81284 21.7073 14.9187C14.6014 22.0246 10.6094 31.6622 10.6094 41.7114C10.6133 44.6726 10.9698 47.6228 11.6714 50.4996C8.73988 53.0912 6.81556 56.6331 6.23662 60.5029C5.65768 64.3726 6.46117 68.3226 8.50587 71.6587C10.5506 74.9948 13.7056 77.5034 17.4166 78.7439C21.1276 79.9843 25.1571 79.8771 28.7969 78.4411V93.2427C28.7969 93.4627 28.8449 93.6802 28.9374 93.8798C29.03 94.0795 29.1649 94.2566 29.3328 94.3988C29.5007 94.5411 29.6975 94.6451 29.9097 94.7036C30.1218 94.7621 30.3442 94.7737 30.5612 94.7375L48.5 91.7478L66.4388 94.7375C66.521 94.7511 66.6042 94.758 66.6875 94.7583C67.0895 94.7583 67.475 94.5986 67.7592 94.3144C68.0435 94.0302 68.2031 93.6446 68.2031 93.2427V78.4411C71.8424 79.8738 75.8701 79.9788 79.5791 78.7376C83.2881 77.4964 86.4413 74.9884 88.4853 71.6538C90.5292 68.3193 91.3333 64.3713 90.7562 60.5029C90.1791 56.6345 88.2579 53.0931 85.3297 50.5002ZM48.5 6.85205C57.7421 6.86232 66.6028 10.5383 73.138 17.0735C79.6731 23.6086 83.3491 32.4693 83.3594 41.7114C83.3621 44.7292 82.9664 47.7341 82.1826 50.6483C80.1001 58.4575 75.378 65.3048 68.8188 70.0268C67.8876 70.697 66.9233 71.3201 65.9297 71.8937L65.9274 71.8954L65.9164 71.9025C65.1778 72.3392 64.3979 72.7314 63.7339 73.057C58.9888 75.3689 53.7798 76.5705 48.5016 76.5708C43.2233 76.5711 38.0142 75.3699 33.2689 73.0585C32.6028 72.7314 31.8228 72.3392 31.0712 71.8937C30.0749 71.3187 29.108 70.6939 28.1744 70.0218C21.6161 65.2979 16.8958 58.4488 14.8159 50.6385C14.0326 47.7275 13.6374 44.7259 13.6406 41.7114C13.6509 32.4693 17.3269 23.6086 23.8621 17.0735C30.3972 10.5383 39.2579 6.86232 48.5 6.85205ZM22.7344 76.5708C20.0971 76.5712 17.5163 75.8069 15.3045 74.3705C13.0927 72.9342 11.3447 70.8874 10.2723 68.4781C9.19991 66.0687 8.84904 63.4 9.26219 60.7953C9.67535 58.1906 10.8348 55.7616 12.6002 53.8023C12.6315 53.8958 12.6744 53.9842 12.7063 54.078C13.0274 55.0079 13.3766 55.9271 13.7692 56.8261C13.8025 56.9028 13.8403 56.9777 13.8742 57.0535C14.2723 57.9493 14.7046 58.828 15.1711 59.6895C15.2123 59.7653 15.2498 59.8438 15.2924 59.9197C15.7678 60.7836 16.2831 61.6255 16.8241 62.45C16.9076 62.5776 16.9893 62.706 17.0744 62.8326C17.6136 63.6335 18.1827 64.4129 18.7818 65.1707C18.8786 65.2935 18.9769 65.4143 19.0754 65.5358C19.6927 66.2988 20.3353 67.0412 21.0099 67.7549C21.0825 67.8317 21.1583 67.9052 21.2315 67.9822C22.6584 69.467 24.204 70.8329 25.8529 72.0664C25.9507 72.1397 26.046 72.2155 26.1447 72.2876C26.9294 72.8627 27.7377 73.4058 28.5697 73.9171C28.6474 73.9653 28.719 74.0224 28.797 74.07V75.1505C26.9124 76.0842 24.8377 76.5703 22.7344 76.5708ZM31.8281 76.0555V75.7269L31.9342 75.7801C36.631 78.0799 41.7584 79.3677 46.9844 79.5599V88.9277L31.8281 91.4532V76.0555ZM65.1719 91.4532L50.0156 88.9277V79.5599C55.2422 79.3677 60.37 78.0795 65.0668 75.7789C65.1008 75.7627 65.1364 75.7449 65.1719 75.7272V91.4532ZM74.2656 76.5708C72.1624 76.5701 70.0877 76.0838 68.2031 75.1499V74.07C68.2777 74.0246 68.3458 73.9703 68.42 73.9242C69.2509 73.4101 70.0601 72.8664 70.8476 72.2931C70.9537 72.2157 71.0557 72.1343 71.1607 72.0556C71.9773 71.444 72.7741 70.8081 73.5368 70.1342L73.5495 70.1226C74.3153 69.4451 75.0466 68.7314 75.7546 67.9958C75.8345 67.9128 75.9169 67.8328 75.9962 67.7491C76.6676 67.0386 77.3067 66.2999 77.921 65.5408C78.021 65.4173 78.1209 65.2945 78.2194 65.1698C78.8192 64.41 79.3896 63.6289 79.9306 62.8265C80.0115 62.7063 80.0891 62.584 80.1687 62.4628C80.7155 61.6292 81.236 60.7804 81.7161 59.9062C81.7486 59.8474 81.7775 59.7868 81.8097 59.7277C82.2926 58.8372 82.7399 57.9278 83.1514 56.9995C83.174 56.9485 83.1992 56.8989 83.2216 56.848C83.6233 55.9292 83.9805 54.9907 84.3074 54.0404C84.3351 53.9598 84.3724 53.8831 84.3996 53.8022C86.1649 55.7614 87.3244 58.1904 87.7376 60.7952C88.1508 63.3999 87.8 66.0685 86.7276 68.4779C85.6552 70.8873 83.9073 72.9341 81.6955 74.3705C79.4837 75.8068 76.9029 76.5711 74.2656 76.5708Z" fill="#E05100"/>
</svg>
