<svg width="90" height="91" viewBox="0 0 90 91" fill="none" xmlns="http://www.w3.org/2000/svg">
<g clip-path="url(#clip0_5_112)">
<path d="M85.14 90.7898C83.938 90.7898 82.9626 89.8143 82.9626 88.6123C82.9626 67.6786 65.9337 50.6498 45 50.6498C24.0663 50.6498 7.0374 67.6786 7.0374 88.6123C7.0374 89.8143 6.06191 90.7898 4.85998 90.7898C3.65659 90.7898 2.68256 89.8143 2.68256 88.6123C2.68256 65.2777 21.6668 46.2949 45 46.2949C68.3332 46.2949 87.3174 65.2777 87.3174 88.6123C87.3174 89.8143 86.3419 90.7898 85.14 90.7898Z" fill="#E05100"/>
<path d="M44.6733 49.031C31.3737 49.031 20.5533 38.2107 20.5533 24.9095C20.5533 11.6099 31.3737 0.789551 44.6733 0.789551C57.9745 0.789551 68.7948 11.6099 68.7948 24.9095C68.7948 38.2107 57.9745 49.031 44.6733 49.031ZM44.6733 5.14439C33.7761 5.14439 24.9082 14.0108 24.9082 24.9095C24.9082 35.8097 33.7761 44.6762 44.6733 44.6762C55.5735 44.6762 64.44 35.8097 64.44 24.9095C64.44 14.0108 55.5735 5.14439 44.6733 5.14439Z" fill="#E05100"/>
<path d="M45.3513 81.2481C40.0355 81.2481 35.7111 76.9223 35.7111 71.6065C35.7111 66.2906 40.0355 61.9648 45.3513 61.9648C50.6671 61.9648 54.9929 66.2906 54.9929 71.6065C54.9929 76.9223 50.6671 81.2481 45.3513 81.2481ZM45.3513 66.3197C42.4364 66.3197 40.066 68.6916 40.066 71.6065C40.066 74.5213 42.4364 76.8932 45.3513 76.8932C48.2661 76.8932 50.6381 74.5213 50.6381 71.6065C50.6381 68.6916 48.2661 66.3197 45.3513 66.3197Z" fill="#E05100"/>
<path d="M58.2111 86.0833C57.6537 86.0833 57.0963 85.8713 56.671 85.446L50.7411 79.5147C49.8905 78.6655 49.8905 77.2865 50.7411 76.4358C51.5918 75.5852 52.9694 75.5852 53.82 76.4358L59.7499 82.3671C60.6005 83.2163 60.6005 84.5954 59.7499 85.446C59.3245 85.8713 58.7671 86.0833 58.2111 86.0833Z" fill="#E05100"/>
</g>
<defs>
<clipPath id="clip0_5_112">
<rect width="90" height="90" fill="white" transform="translate(0 0.789551)"/>
</clipPath>
</defs>
</svg>
